<?xml version="1.0" encoding="UTF-8"?>
<svg version="1.1" xmlns="http://www.w3.org/2000/svg" width="512" height="512">
<path d="M0 0 C1.03858154 0.69343506 1.03858154 0.69343506 2.09814453 1.40087891 C11.07966666 7.40660759 19.34553915 13.75609555 27.1328125 21.25 C29.65371773 23.66787096 32.23010541 25.97022554 34.875 28.25 C38.97350317 31.87989029 42.50076 35.79798377 46 40 C46.76054687 40.88429688 47.52109375 41.76859375 48.3046875 42.6796875 C54.20248975 49.60638983 59.6503179 56.75893567 64.80175781 64.25732422 C65.93776983 65.90949492 67.08954323 67.55079585 68.2421875 69.19140625 C90.59712218 102.24647871 100.21815166 141.58970734 102 181 C102.03464355 181.72832031 102.06928711 182.45664063 102.10498047 183.20703125 C104.50856862 241.84861044 81.39930686 298.21711925 42 341 C-1.41325806 387.41381232 -60.05874833 411.61679361 -123.2421875 414.12890625 C-175.57507476 415.08855577 -225.17630919 397.38840771 -266 365 C-266.54398437 364.57315918 -267.08796875 364.14631836 -267.6484375 363.70654297 C-282.10138846 352.27810569 -296.28502683 338.8890914 -306.80908203 323.71679688 C-307.65343226 322.49960319 -308.50984879 321.29073966 -309.37451172 320.08789062 C-328.84529513 292.96763915 -340.94702368 261.65456737 -347.3125 229 C-347.47194092 228.18869629 -347.63138184 227.37739258 -347.7956543 226.54150391 C-358.48466725 168.18527105 -342.31285349 105.37642372 -309 57 C-302.07414355 47.16251541 -293.99287961 38.36988714 -285.65625 29.71923828 C-284.14738678 28.15299199 -282.65127051 26.57552771 -281.15625 24.99609375 C-274.30223275 17.91024944 -266.88648104 11.87514932 -259 6 C-258.4234668 5.56800293 -257.84693359 5.13600586 -257.25292969 4.69091797 C-224.32066201 -19.84557396 -186.52420269 -32.95777719 -146 -38 C-144.44345703 -38.20109375 -144.44345703 -38.20109375 -142.85546875 -38.40625 C-93.43793428 -43.87178377 -40.60084304 -27.75847112 0 0 Z " fill="#F9DF6F" transform="translate(380,70)"/>
<path d="M0 0 C10.20188514 0.49376327 20.26696887 1.2090118 30.375 2.75 C31.53128906 2.9255542 32.68757812 3.1011084 33.87890625 3.28198242 C65.7065398 8.32680364 96.36786557 20.87412721 123 39 C124.04293213 39.69561035 124.04293213 39.69561035 125.10693359 40.40527344 C134.08508439 46.40942432 142.34822899 52.75868406 150.1328125 60.25 C152.65371773 62.66787096 155.23010541 64.97022554 157.875 67.25 C161.97350317 70.87989029 165.50076 74.79798377 169 79 C169.76054687 79.88429688 170.52109375 80.76859375 171.3046875 81.6796875 C177.20248975 88.60638983 182.6503179 95.75893567 187.80175781 103.25732422 C188.93776983 104.90949492 190.08954323 106.55079585 191.2421875 108.19140625 C213.59712218 141.24647871 223.21815166 180.58970734 225 220 C225.03464355 220.72832031 225.06928711 221.45664063 225.10498047 222.20703125 C227.50856862 280.84861044 204.39930686 337.21711925 165 380 C121.58674194 426.41381232 62.94125167 450.61679361 -0.2421875 453.12890625 C-36.27938284 453.78973502 -70.56993032 445.39609369 -103 430 C-103 429.34 -103 428.68 -103 428 C-102.34 428 -101.68 428 -101 428 C-100.88696533 427.2584668 -100.77393066 426.51693359 -100.6574707 425.75292969 C-99.9824509 422.92651926 -99.1334007 421.31503159 -97.48046875 418.953125 C-96.95839844 418.19870117 -96.43632812 417.44427734 -95.8984375 416.66699219 C-95.33382812 415.86938477 -94.76921875 415.07177734 -94.1875 414.25 C-93.60871094 413.41887695 -93.02992188 412.58775391 -92.43359375 411.73144531 C-90.63104025 409.14811185 -88.81663584 406.57344466 -87 404 C-85.8812444 402.40643672 -84.76274498 400.81269356 -83.64453125 399.21875 C-79.1263175 392.79107353 -74.56978756 386.3910797 -70 380 C-65.5657898 380.41248467 -61.61512996 381.38257187 -57.375 382.75 C-40.87621949 387.96513177 -23.50112754 392.01060296 -6.24658203 393.53613281 C-5.26223175 393.62372864 -4.27788147 393.71132446 -3.26370239 393.80157471 C-2.14316971 393.89979523 -2.14316971 393.89979523 -1 394 C-1.01332367 393.1466658 -1.02664734 392.2933316 -1.04037476 391.41413879 C-1.16067519 383.36609342 -1.25198623 375.31835063 -1.31087303 367.26961231 C-1.34216586 363.13174347 -1.3845988 358.99461846 -1.45263672 354.85717773 C-1.51790609 350.86302591 -1.55372146 346.86958871 -1.56926346 342.87494469 C-1.58033656 341.35223833 -1.60196104 339.82957043 -1.63438034 338.30716896 C-1.87934682 326.32535209 -1.87934682 326.32535209 0.30535889 323.03256226 C1.91162109 321.71362305 1.91162109 321.71362305 5 320 C7.13604308 316.79593538 7.24208908 316.00399253 7.1953125 312.33203125 C7.18886719 311.43935547 7.18242187 310.54667969 7.17578125 309.62695312 C7.15902344 308.69818359 7.14226562 307.76941406 7.125 306.8125 C7.11597656 305.87212891 7.10695313 304.93175781 7.09765625 303.96289062 C7.07409056 301.64167032 7.04119116 299.32096356 7 297 C8.02738281 296.6596875 9.05476563 296.319375 10.11328125 295.96875 C25.77974261 290.57724273 37.68168942 282.44928408 45.2109375 267.1796875 C47.46366634 260.95680288 48.36511505 255.19737112 48.3125 248.625 C48.30404053 247.5102832 48.30404053 247.5102832 48.29541016 246.37304688 C48.0438031 234.94360947 44.09670484 226.92319752 36.6875 218.3125 C27.45498732 210.3682449 17.79520864 206.47339615 6 204 C5.97107615 199.87501462 5.95322733 195.75005515 5.9375 191.625 C5.92912109 190.449375 5.92074219 189.27375 5.91210938 188.0625 C5.90888672 186.94101563 5.90566406 185.81953125 5.90234375 184.6640625 C5.89710693 183.62717285 5.89187012 182.5902832 5.88647461 181.52197266 C6 179 6 179 7 177 C12.31232948 177.37732434 17.50625421 177.7853048 22.6875 179.0625 C23.41324219 179.21976563 24.13898438 179.37703125 24.88671875 179.5390625 C26.27518901 179.84190814 27.65470135 180.18995203 29.01953125 180.5859375 C31.52569469 181.03081858 32.64499749 181.03477383 35 180 C36.87989913 178.00260717 38.43029814 176.1561894 40 173.9375 C40.59748047 173.09723267 40.59748047 173.09723267 41.20703125 172.23999023 C43.90405166 168.06163375 44.74107389 164.91540414 44 160 C40.23402473 154.858326 34.97749184 154.12619411 29 153 C23.01956039 152.15484 17.01260386 151.56223468 11 151 C11.05800781 149.90300781 11.11601562 148.80601562 11.17578125 147.67578125 C11.22269688 146.22139686 11.26819511 144.76696626 11.3125 143.3125 C11.35439453 142.59126953 11.39628906 141.87003906 11.43945312 141.12695312 C11.5307134 137.12975299 11.32274263 135.44869097 8.91796875 132.10546875 C5.66655828 129.75940417 2.84931739 129.00758128 -1 128 C-1.03109742 117.72917825 -1.05114934 107.4583615 -1.0625 97.1875 C-1.06335602 96.41847477 -1.06421204 95.64944954 -1.06509399 94.85712051 C-1.09613613 63.22844562 -0.67611348 31.62162112 0 0 Z " fill="#E7C145" transform="translate(257,31)"/>
<path d="M0 0 C27.79387943 0.44442858 55.10063525 8.91154032 79 23 C79.75410156 23.41121094 80.50820313 23.82242188 81.28515625 24.24609375 C89.4311464 28.82906317 96.67828901 34.70169635 104.01904297 40.45068359 C105.77809317 41.82644556 107.54524795 43.19067676 109.31640625 44.55078125 C110.22261719 45.25589844 111.12882812 45.96101563 112.0625 46.6875 C112.83722656 47.28949219 113.61195313 47.89148438 114.41015625 48.51171875 C114.93480469 49.00285156 115.45945312 49.49398437 116 50 C116 50.66 116 51.32 116 52 C116.66 52 117.32 52 118 52 C118 52.66 118 53.32 118 54 C119.485 54.495 119.485 54.495 121 55 C122.93818042 57.86850702 124.49946106 60.88349604 126 64 C126.66 64 127.32 64 128 64 C128 64.66 128 65.32 128 66 C128.66 66 129.32 66 130 66 C130.66 67.98 131.32 69.96 132 72 C132.66 72 133.32 72 134 72 C140.76536343 84.38006055 146.95485239 96.81461134 152 110 C152.38478516 110.99797607 152.38478516 110.99797607 152.77734375 112.01611328 C159.47166353 129.85104767 160.27065348 148.58312982 160.375 167.4375 C160.38294586 168.19091675 160.39089172 168.9443335 160.39907837 169.72058105 C160.50984283 183.38091076 159.07508432 196.20196129 154 209 C153.46978977 211.46253197 153.02230252 213.92287695 152.625 216.41015625 C150.89510245 223.57841921 146.98358198 230.3193931 143.8125 236.9375 C143.34908203 237.90751953 142.88566406 238.87753906 142.40820312 239.87695312 C141.27337672 242.2518991 140.13727954 244.62622803 139 247 C138.34 247 137.68 247 137 247 C137 247.99 137 248.98 137 250 C136.34 250 135.68 250 135 250 C134.8453125 251.0828125 134.8453125 251.0828125 134.6875 252.1875 C133.93206053 255.27793421 132.84468685 257.41743841 131 260 C130.34 260 129.68 260 129 260 C128.731875 260.721875 128.46375 261.44375 128.1875 262.1875 C126.03702814 267.28072283 123.12585702 271.21094977 119.4375 275.3125 C118.25994141 276.63701172 118.25994141 276.63701172 117.05859375 277.98828125 C115 280 115 280 113 280 C113 280.66 113 281.32 113 282 C112.34 282 111.68 282 111 282 C110.73058594 282.59425781 110.46117187 283.18851562 110.18359375 283.80078125 C106.10474276 291.37963639 97.57784428 296.75130714 91 302 C90.12601562 302.74894531 89.25203125 303.49789063 88.3515625 304.26953125 C86 306 86 306 83 306 C83 306.66 83 307.32 83 308 C81.29457031 308.83917969 81.29457031 308.83917969 79.5546875 309.6953125 C76.56297312 311.18919886 73.61836309 312.74327051 70.6953125 314.3671875 C60.08818549 320.22186823 49.65334821 324.69603673 38 328 C37.33436035 328.19287598 36.6687207 328.38575195 35.98291016 328.58447266 C23.85110198 332.04510036 10.65951691 335 -2 335 C-2.13911725 326.09002912 -2.24567899 317.18043291 -2.31087303 308.26961231 C-2.34216586 304.13174347 -2.3845988 299.99461846 -2.45263672 295.85717773 C-2.51790609 291.86302591 -2.55372146 287.86958871 -2.56926346 283.87494469 C-2.58033656 282.35223833 -2.60196104 280.82957043 -2.63438034 279.30716896 C-2.87934682 267.32535209 -2.87934682 267.32535209 -0.69464111 264.03256226 C0.91162109 262.71362305 0.91162109 262.71362305 4 261 C6.13604308 257.79593538 6.24208908 257.00399253 6.1953125 253.33203125 C6.18886719 252.43935547 6.18242187 251.54667969 6.17578125 250.62695312 C6.15902344 249.69818359 6.14226562 248.76941406 6.125 247.8125 C6.11146484 246.40194336 6.11146484 246.40194336 6.09765625 244.96289062 C6.07409056 242.64167032 6.04119116 240.32096356 6 238 C7.02738281 237.6596875 8.05476563 237.319375 9.11328125 236.96875 C24.77974261 231.57724273 36.68168942 223.44928408 44.2109375 208.1796875 C46.46366634 201.95680288 47.36511505 196.19737112 47.3125 189.625 C47.30686035 188.88185547 47.3012207 188.13871094 47.29541016 187.37304688 C47.0438031 175.94360947 43.09670484 167.92319752 35.6875 159.3125 C26.45498732 151.3682449 16.79520864 147.47339615 5 145 C4.97107615 140.87501462 4.95322733 136.75005515 4.9375 132.625 C4.92912109 131.449375 4.92074219 130.27375 4.91210938 129.0625 C4.90888672 127.94101563 4.90566406 126.81953125 4.90234375 125.6640625 C4.89710693 124.62717285 4.89187012 123.5902832 4.88647461 122.52197266 C5 120 5 120 6 118 C11.31232948 118.37732434 16.50625421 118.7853048 21.6875 120.0625 C22.41324219 120.21976562 23.13898438 120.37703125 23.88671875 120.5390625 C25.27518901 120.84190814 26.65470135 121.18995203 28.01953125 121.5859375 C30.52569469 122.03081858 31.64499749 122.03477383 34 121 C35.87989913 119.00260717 37.43029814 117.1561894 39 114.9375 C39.39832031 114.37732178 39.79664063 113.81714355 40.20703125 113.23999023 C42.90405166 109.06163375 43.74107389 105.91540414 43 101 C39.23402473 95.858326 33.97749184 95.12619411 28 94 C22.01956039 93.15484 16.01260386 92.56223468 10 92 C10.05800781 90.90300781 10.11601562 89.80601562 10.17578125 88.67578125 C10.22269688 87.22139686 10.26819511 85.76696626 10.3125 84.3125 C10.3753418 83.2306543 10.3753418 83.2306543 10.43945312 82.12695312 C10.5307134 78.12975299 10.32274263 76.44869097 7.91796875 73.10546875 C4.66655828 70.75940417 1.84931739 70.00758128 -2 69 C-1.89265501 60.15109114 -1.780054 51.30226961 -1.66066074 42.45351505 C-1.60539417 38.34509583 -1.55196835 34.23666954 -1.50268555 30.12817383 C-1.45509687 26.16646874 -1.40275633 22.20485282 -1.34705925 18.24325371 C-1.32661069 16.72854253 -1.30790183 15.21380688 -1.29092598 13.69905281 C-1.26693701 11.58451574 -1.2368755 9.47014865 -1.20532227 7.35571289 C-1.18977798 6.14992081 -1.1742337 4.94412872 -1.15821838 3.70179749 C-1 1 -1 1 0 0 Z " fill="#D9AA2E" transform="translate(258,90)"/>
<path d="M0 0 C3.07365786 1.80803404 4.43019732 2.86039464 6 6 C6.0969632 7.95637514 6.12978917 9.91622931 6.125 11.875 C6.12886719 13.44894531 6.12886719 13.44894531 6.1328125 15.0546875 C6.01998664 17.55676685 5.72508762 19.61756923 5 22 C6.05574219 21.94779297 6.05574219 21.94779297 7.1328125 21.89453125 C17.81978804 21.60154628 29.10454443 22.58699715 38 29 C39.54097595 32.08195191 39.75564223 34.69330958 39 38 C36.95715219 41.56539926 34.52867611 44.76740976 32 48 C31.39091797 49.13888672 31.39091797 49.13888672 30.76953125 50.30078125 C29 52 29 52 25.46875 52.375 C20.3894512 52.11452314 15.46105408 51.06661017 10.5 50 C7.365 49.34 4.23 48.68 1 48 C0.67 56.91 0.34 65.82 0 75 C2.97 75.33 5.94 75.66 9 76 C21.93607347 79.77707408 32.30598885 87.29504336 39 99 C44.22676774 108.9889339 44.81781543 122.56639358 41.875 133.4375 C37.41572313 145.67458538 28.69518717 157.02284378 17 163 C4.76455026 168 4.76455026 168 1 168 C1.10828125 168.90878906 1.10828125 168.90878906 1.21875 169.8359375 C1.51989456 172.55460362 1.76176066 175.27513755 2 178 C2.103125 178.86109375 2.20625 179.7221875 2.3125 180.609375 C2.69303435 185.71487751 2.09258846 188.61236043 -1.125 192.6875 C-3.66059512 195.20778971 -4.43815256 195.94266863 -8.0625 196.3125 C-13.0636793 194.07793052 -16.95951372 191.16734258 -19 186 C-19.265625 183.6328125 -19.265625 183.6328125 -19.25 181.125 C-19.25773437 179.89136719 -19.25773437 179.89136719 -19.265625 178.6328125 C-18.95432143 175.54724472 -18.06645247 172.90312061 -17 170 C-18.05058594 169.74605469 -19.10117188 169.49210938 -20.18359375 169.23046875 C-35.51322689 165.48846038 -35.51322689 165.48846038 -42 163 C-43.03125 162.608125 -44.0625 162.21625 -45.125 161.8125 C-50.70531511 158.29447526 -54.98825491 153.32262742 -57 147 C-57.90186095 139.88997999 -57.29914189 134.7731334 -53 129 C-49.27420911 126.51613941 -47.41288598 126.6195788 -43 127 C-40.625 128.25 -40.625 128.25 -38 130 C-35.74655131 131.0574843 -33.46816852 132.0403615 -31.1796875 133.01953125 C-29 134 -29 134 -26.1875 135.6875 C-22.86044516 137.05746376 -20.36994027 137.32485952 -16.80078125 137.58203125 C-15.17329956 137.70348511 -15.17329956 137.70348511 -13.51293945 137.82739258 C-12.68366943 137.88435303 -11.85439941 137.94131348 -11 138 C-11.27921102 133.47830763 -11.57557688 128.95789536 -11.875 124.4375 C-11.95363281 123.16068359 -12.03226563 121.88386719 -12.11328125 120.56835938 C-12.351732 117.0374541 -12.64814118 113.52128233 -13 110 C-13.07041504 109.22156738 -13.14083008 108.44313477 -13.21337891 107.64111328 C-13.47345022 105.54550001 -13.47345022 105.54550001 -15 103 C-17.73921077 101.45301885 -20.58614204 100.75245896 -23.625 100 C-30.86438634 97.90569816 -35.97913827 95.84269076 -41 90 C-41.80244141 89.16662109 -41.80244141 89.16662109 -42.62109375 88.31640625 C-50.60034369 79.70040818 -55.77556127 68.44002564 -55.34765625 56.5703125 C-53.76441908 44.86503094 -47.25338438 35.18834962 -38.3515625 27.73046875 C-31.44919646 22.65115287 -25.492981 21.36169663 -17 22 C-17.05800781 20.83082031 -17.11601562 19.66164062 -17.17578125 18.45703125 C-17.22269449 16.9088942 -17.26819298 15.36071383 -17.3125 13.8125 C-17.35439453 13.04357422 -17.39628906 12.27464844 -17.43945312 11.48242188 C-17.52927903 7.29653472 -17.35327098 5.49676721 -14.85546875 1.984375 C-10.1218704 -1.30518446 -5.54697143 -0.85160972 0 0 Z " fill="#FEFDF8" transform="translate(263,160)"/>
<path d="M0 0 C2.71112615 2.22451376 3.90269396 3.34296107 4.42578125 6.875 C4.38839844 7.90625 4.35101563 8.9375 4.3125 10 C4.28800781 11.03125 4.26351563 12.0625 4.23828125 13.125 C4.03727466 15.55025981 3.68754659 17.67463917 3 20 C4.05574219 19.94779297 4.05574219 19.94779297 5.1328125 19.89453125 C15.81978804 19.60154628 27.10454443 20.58699715 36 27 C37.54097595 30.08195191 37.75564223 32.69330958 37 36 C34.95715219 39.56539926 32.52867611 42.76740976 30 46 C29.59394531 46.75925781 29.18789063 47.51851562 28.76953125 48.30078125 C27 50 27 50 23.46875 50.375 C18.3894512 50.11452314 13.46105408 49.06661017 8.5 48 C5.365 47.34 2.23 46.68 -1 46 C-1.33 54.91 -1.66 63.82 -2 73 C0.97 73.33 3.94 73.66 7 74 C19.93607347 77.77707408 30.30598885 85.29504336 37 97 C42.22676774 106.9889339 42.81781543 120.56639358 39.875 131.4375 C35.41572313 143.67458538 26.69518717 155.02284378 15 161 C2.76455026 166 2.76455026 166 -1 166 C-0.9278125 166.60585938 -0.855625 167.21171875 -0.78125 167.8359375 C-0.1075063 173.91834595 0.11713363 179.88302138 0 186 C-0.66 186.33 -1.32 186.66 -2 187 C-2.33 186.01 -2.66 185.02 -3 184 C-5.01508358 183.26676204 -5.01508358 183.26676204 -7 183 C-9.52920479 156.41644328 -9.12629471 129.66955717 -9 103 C-8.01 102.505 -8.01 102.505 -7 102 C-6.95101563 100.91203125 -6.90203125 99.8240625 -6.8515625 98.703125 C-6.42226648 90.00913695 -5.69842467 81.5580816 -4 73 C-4.99 73 -5.98 73 -7 73 C-8.3308911 70.33821779 -8.11268993 68.31260604 -8.09765625 65.3359375 C-8.09443359 64.21445313 -8.09121094 63.09296875 -8.08789062 61.9375 C-8.07951172 60.761875 -8.07113281 59.58625 -8.0625 58.375 C-8.05798828 57.19164062 -8.05347656 56.00828125 -8.04882812 54.7890625 C-8.03701467 51.85932493 -8.02054258 48.92968728 -8 46 C-8.66 46 -9.32 46 -10 46 C-10 45.34 -10 44.68 -10 44 C-8.02 44 -6.04 44 -4 44 C-3.87153687 42.21384277 -3.87153687 42.21384277 -3.74047852 40.39160156 C-3.42159279 35.97076668 -3.09808874 31.55027976 -2.77319336 27.12988281 C-2.63326177 25.21721414 -2.49458024 23.30445358 -2.35717773 21.39160156 C-2.15938181 18.64102425 -1.95708234 15.89080948 -1.75390625 13.140625 C-1.6934462 12.28631897 -1.63298615 11.43201294 -1.57069397 10.55181885 C-1.51070724 9.75129089 -1.45072052 8.95076294 -1.38891602 8.12597656 C-1.33784195 7.42426331 -1.28676788 6.72255005 -1.23414612 5.99957275 C-0.99232066 3.9344196 -0.54720042 2.00400854 0 0 Z " fill="#FCE28E" transform="translate(265,162)"/>
<path d="M0 0 C2.375 1.25 2.375 1.25 5 3 C7.25460961 4.05802909 9.53397689 5.0412119 11.82421875 6.01953125 C14 7 14 7 16.75 8.6875 C21.96620763 10.79404539 27.42201083 10.7599975 33 11 C33 9.35 33 7.7 33 6 C33.66 5.67 34.32 5.34 35 5 C37.1051488 16.24108585 37.41381362 27.43767781 37.78125 38.83984375 C37.99125085 45.24778637 38.39266048 51.61647401 39 58 C39.99 58.33 40.98 58.66 42 59 C42.495 58.01 42.495 58.01 43 57 C43.42683144 61.35368069 43.44583769 63.37058208 40.875 67 C38 69 38 69 35.0625 69.125 C30.70955347 67.52595842 27.31919878 65.12587101 24.84375 61.13671875 C23.86627762 58.66136045 23.73344961 56.78133793 23.75 54.125 C23.74226563 52.89136719 23.74226563 52.89136719 23.734375 51.6328125 C24.04567857 48.54724472 24.93354753 45.90312061 26 43 C24.42412109 42.61908203 24.42412109 42.61908203 22.81640625 42.23046875 C7.48677311 38.48846038 7.48677311 38.48846038 1 36 C-0.03125 35.608125 -1.0625 35.21625 -2.125 34.8125 C-7.70531511 31.29447526 -11.98825491 26.32262742 -14 20 C-14.90186095 12.88997999 -14.29914189 7.7731334 -10 2 C-6.27420911 -0.48386059 -4.41288598 -0.3804212 0 0 Z " fill="#FEFEFA" transform="translate(220,287)"/>
<path d="M0 0 C43.99035801 1.24091278 86.51558378 14.16864866 123 39 C123.69528809 39.46374023 124.39057617 39.92748047 125.10693359 40.40527344 C134.08508439 46.40942432 142.34822899 52.75868406 150.1328125 60.25 C152.65371773 62.66787096 155.23010541 64.97022554 157.875 67.25 C161.97350317 70.87989029 165.50076 74.79798377 169 79 C169.76054687 79.88429688 170.52109375 80.76859375 171.3046875 81.6796875 C177.20248975 88.60638983 182.6503179 95.75893567 187.80175781 103.25732422 C188.93776983 104.90949492 190.08954323 106.55079585 191.2421875 108.19140625 C213.59712218 141.24647871 223.21815166 180.58970734 225 220 C225.03464355 220.72832031 225.06928711 221.45664063 225.10498047 222.20703125 C226.52250521 256.79111321 218.44400295 289.50174268 205 321 C204.01 321 203.02 321 202 321 C202.99837372 317.08970293 204.15912762 313.52967307 205.875 309.875 C208.04819969 305.14889658 209.52146761 300.29744398 210.97265625 295.30859375 C211.7319094 292.86339445 212.55385743 290.5567217 213.4921875 288.18359375 C215.17871714 283.74805782 216.1585259 279.27507254 217.0625 274.625 C217.22298828 273.85800781 217.38347656 273.09101563 217.54882812 272.30078125 C220.37125151 258.08664902 221.33727682 243.80709361 221.26074219 229.34057617 C221.24998649 226.93447798 221.26074181 224.52912334 221.2734375 222.12304688 C221.28568314 208.06773764 220.34145081 193.70275626 217 180 C216.67 179.67 216.34 179.34 216 179 C215.72147297 177.12902494 215.47843663 175.25274911 215.25 173.375 C213.53264593 161.69955551 209.58575071 148.64291784 203.5 138.5 C202.05463698 136.09106163 201.0813635 133.80007215 200.0625 131.1875 C197.38697306 122.95833686 197.38697306 122.95833686 192 117 C191.24198437 115.5456677 190.54324297 114.0602054 189.875 112.5625 C187.50333897 107.66616755 184.59575899 103.7470966 181.1171875 99.5859375 C178.8890765 96.86451779 176.84926722 94.05434593 174.8125 91.1875 C172.09549666 87.4124073 169.42240909 84.13720833 166 81 C164.63015802 79.70420353 163.2848951 78.38007251 162 77 C162 76.34 162 75.68 162 75 C161.34 75 160.68 75 160 75 C157.375 72.625 157.375 72.625 155 70 C155 69.34 155 68.68 155 68 C154.34 68 153.68 68 153 68 C151.58984375 66.49609375 151.58984375 66.49609375 149.9375 64.4375 C145.34062253 59.02489271 140.04167689 54.80017612 133.9375 51.1875 C133.298125 50.795625 132.65875 50.40375 132 50 C132 49.34 132 48.68 132 48 C129.03 47.01 129.03 47.01 126 46 C126 45.34 126 44.68 126 44 C125.01 44 124.02 44 123 44 C121.97895449 43.02149805 120.9793879 42.02019573 120 41 C118.515 40.505 118.515 40.505 117 40 C117 39.34 117 38.68 117 38 C116.01 38 115.02 38 114 38 C114 37.34 114 36.68 114 36 C113.01 36 112.02 36 111 36 C111 35.34 111 34.68 111 34 C110.484375 33.896875 109.96875 33.79375 109.4375 33.6875 C106.13973565 32.75736134 103.13366668 31.38604488 100 30 C100 29.34 100 28.68 100 28 C99.071875 27.773125 98.14375 27.54625 97.1875 27.3125 C92.97684588 26.11065661 89.1398952 24.28205635 85.1796875 22.43359375 C79.20876878 19.74154563 73.09305334 17.3992277 67 15 C66.18789063 14.64421875 65.37578125 14.2884375 64.5390625 13.921875 C61.18108808 12.70267198 57.75352109 12.07542436 54.25 11.4375 C47.13019031 10.13019031 47.13019031 10.13019031 46 9 C34.50002853 5.95889643 22.54505874 4.82371282 10.6875 4.8125 C9.44141968 4.8112915 9.44141968 4.8112915 8.17016602 4.81005859 C3.95045068 4.74448291 3.95045068 4.74448291 0 6 C0 4.02 0 2.04 0 0 Z " fill="#DEC057" transform="translate(257,31)"/>
<path d="M0 0 C2.71112615 2.22451376 3.90269396 3.34296107 4.42578125 6.875 C4.38839844 7.90625 4.35101563 8.9375 4.3125 10 C4.28800781 11.03125 4.26351563 12.0625 4.23828125 13.125 C4.03727466 15.55025981 3.68754659 17.67463917 3 20 C4.05574219 19.94779297 4.05574219 19.94779297 5.1328125 19.89453125 C15.81978804 19.60154628 27.10454443 20.58699715 36 27 C37.54097595 30.08195191 37.75564223 32.69330958 37 36 C34.95715219 39.56539926 32.52867611 42.76740976 30 46 C29.59394531 46.75925781 29.18789063 47.51851562 28.76953125 48.30078125 C27 50 27 50 23.3046875 50.375 C18.38868961 50.12347338 13.86985535 48.81410539 9.17578125 47.421875 C3.32585114 45.80650968 -0.44716029 46 -7 46 C-7 54.25 -7 62.5 -7 71 C-7.33 71 -7.66 71 -8 71 C-8 62.75 -8 54.5 -8 46 C-8.66 46 -9.32 46 -10 46 C-10 45.34 -10 44.68 -10 44 C-8.02 44 -6.04 44 -4 44 C-3.87153687 42.21384277 -3.87153687 42.21384277 -3.74047852 40.39160156 C-3.42159279 35.97076668 -3.09808874 31.55027976 -2.77319336 27.12988281 C-2.63326177 25.21721414 -2.49458024 23.30445358 -2.35717773 21.39160156 C-2.15938181 18.64102425 -1.95708234 15.89080948 -1.75390625 13.140625 C-1.6934462 12.28631897 -1.63298615 11.43201294 -1.57069397 10.55181885 C-1.51070724 9.75129089 -1.45072052 8.95076294 -1.38891602 8.12597656 C-1.33784195 7.42426331 -1.28676788 6.72255005 -1.23414612 5.99957275 C-0.99232066 3.9344196 -0.54720042 2.00400854 0 0 Z " fill="#FAEB9F" transform="translate(265,162)"/>
<path d="M0 0 C0.66 0 1.32 0 2 0 C0.54132068 4.9595097 -1.57271363 9.16967891 -4.125 13.625 C-4.72550171 14.67941284 -4.72550171 14.67941284 -5.33813477 15.75512695 C-37.02004826 70.79017124 -87.72491882 106.27236767 -148.25048828 122.89257812 C-200.89215998 136.41085778 -255.0753465 130.2268557 -304 107 C-304 106.34 -304 105.68 -304 105 C-300.24974051 104.77290816 -298.25876883 105.14236974 -295.125 107.1875 C-286.83044053 112.08630023 -277.21700425 114.40549623 -268 117 C-268 117.66 -268 118.32 -268 119 C-266.865625 118.979375 -265.73125 118.95875 -264.5625 118.9375 C-261 119 -261 119 -260 120 C-258.96875 120.144375 -257.9375 120.28875 -256.875 120.4375 C-253.08742112 120.98730984 -249.66836909 121.92478837 -246 123 C-235.2755974 125.8626065 -224.54095197 126.08729612 -213.5 126.125 C-212.53167236 126.12967285 -211.56334473 126.1343457 -210.56567383 126.13916016 C-209.18738403 126.13601807 -209.18738403 126.13601807 -207.78125 126.1328125 C-206.95689453 126.13168457 -206.13253906 126.13055664 -205.28320312 126.12939453 C-203.00399835 126.07884672 -203.00399835 126.07884672 -200.88867188 125.42919922 C-199 125 -199 125 -196 126 C-194.04322445 126.15754704 -194.04322445 126.15754704 -192 126.125 C-190.9790625 126.12886719 -190.9790625 126.12886719 -189.9375 126.1328125 C-187.78125219 126.06631126 -187.78125219 126.06631126 -185 125 C-182.81376122 124.87206665 -180.62586429 124.77157547 -178.4375 124.6875 C-171.89565683 124.27440224 -166.87818536 122.77163946 -161 120 C-160.01 119.67 -159.02 119.34 -158 119 C-157.67 119.33 -157.34 119.66 -157 120 C-152.34934387 119.55206891 -152.34934387 119.55206891 -148 118 C-147.236875 117.87625 -146.47375 117.7525 -145.6875 117.625 C-142.66007544 116.92094778 -140.63356604 115.62065603 -138 114 C-135.07063657 113.02354552 -133.20826995 113 -130 113 C-128.66431979 112.67619874 -127.33076989 112.34342449 -126 112 C-125.01 112 -124.02 112 -123 112 C-123 111.34 -123 110.68 -123 110 C-117.555 109.01 -117.555 109.01 -112 108 C-112 107.34 -112 106.68 -112 106 C-111.34 106 -110.68 106 -110 106 C-110 105.34 -110 104.68 -110 104 C-109.34 104 -108.68 104 -108 104 C-107.67 103.34 -107.34 102.68 -107 102 C-106.2575 102.0825 -105.515 102.165 -104.75 102.25 C-101.87252685 102.29003365 -101.87252685 102.29003365 -100.125 100.0625 C-97.26959098 97.2910736 -94.86462835 97.4375051 -91 97 C-90.67 96.34 -90.34 95.68 -90 95 C-88.68 95 -87.36 95 -86 95 C-85.67 94.01 -85.34 93.02 -85 92 C-83.68042828 91.61578735 -82.34352471 91.28953455 -81 91 C-79.06706519 89.88813609 -79.06706519 89.88813609 -77.1796875 88.49609375 C-76.47972656 88.00302734 -75.77976562 87.50996094 -75.05859375 87.00195312 C-74.33800781 86.48568359 -73.61742187 85.96941406 -72.875 85.4375 C-71.43788269 84.41116932 -69.99791113 83.38881984 -68.5546875 82.37109375 C-67.92030762 81.91661865 -67.28592773 81.46214355 -66.63232422 80.99389648 C-65 80 -65 80 -63 80 C-62.7525 79.401875 -62.505 78.80375 -62.25 78.1875 C-60.81927475 75.68373081 -59.4308418 74.51927612 -57 73 C-56.34 73 -55.68 73 -55 73 C-55 72.34 -55 71.68 -55 71 C-53.42578125 69.44921875 -53.42578125 69.44921875 -51.3125 67.6875 C-48.05416362 64.91505589 -44.98893961 62.06557909 -42 59 C-41.46761719 58.48953125 -40.93523437 57.9790625 -40.38671875 57.453125 C-35.11026552 52.35216357 -30.60998218 46.75346447 -26.421875 40.73046875 C-25.95265625 40.15941406 -25.4834375 39.58835937 -25 39 C-24.34 39 -23.68 39 -23 39 C-22.74863281 38.28328125 -22.49726563 37.5665625 -22.23828125 36.828125 C-20.88895475 33.74638245 -19.22889879 31.41982174 -17.1875 28.75 C-14.25549329 24.79679167 -11.6688894 20.88870753 -9.36328125 16.546875 C-7.53862149 13.13805505 -5.61201583 9.79068285 -3.6875 6.4375 C-2.98304207 5.20704891 -2.2786125 3.97658158 -1.57421875 2.74609375 C-1.05472656 1.83988281 -0.53523438 0.93367188 0 0 Z " fill="#D8AE3D" transform="translate(458,354)"/>
<path d="M0 0 C1.32 0 2.64 0 4 0 C4 10.23 4 20.46 4 31 C4.66 30.67 5.32 30.34 6 30 C6 41.22 6 52.44 6 64 C12.435 63.505 12.435 63.505 19 63 C18 65 18 65 15.625 65.9375 C12.87382037 67.05107271 11.77151656 67.6613974 10 70 C9.41565652 72.92003766 9.41565652 72.92003766 9.3125 76.1875 C9.24546875 77.3425 9.1784375 78.4975 9.109375 79.6875 C9.02097513 82.36475325 9.00345571 85.0108253 9.0625 87.6875 C9 91 9 91 7 93 C6.72258755 95.23035297 6.72258755 95.23035297 6.8046875 97.7890625 C6.81113281 98.73007812 6.81757813 99.67109375 6.82421875 100.640625 C6.84097656 101.62546875 6.85773438 102.6103125 6.875 103.625 C6.88402344 104.61757813 6.89304687 105.61015625 6.90234375 106.6328125 C6.92595884 109.08878134 6.95889201 111.54427168 7 114 C6.01 114.495 6.01 114.495 5 115 C4.67 114.01 4.34 113.02 4 112 C1.98491642 111.26676204 1.98491642 111.26676204 0 111 C-2.52920479 84.41644328 -2.12629471 57.66955717 -2 31 C-1.34 30.67 -0.68 30.34 0 30 C0.04898437 28.91203125 0.09796875 27.8240625 0.1484375 26.703125 C0.57773352 18.00913695 1.30157533 9.5580816 3 1 C2.01 0.67 1.02 0.34 0 0 Z " fill="#FDEAA5" transform="translate(258,234)"/>
<path d="M0 0 C-0.33 1.32 -0.66 2.64 -1 4 C-2.00075562 4.01401855 -2.00075562 4.01401855 -3.02172852 4.02832031 C-24.29655924 4.39917099 -44.59780757 6.85104163 -65 13 C-65.86753906 13.25652344 -66.73507813 13.51304688 -67.62890625 13.77734375 C-71.99314654 15.1434765 -75.92290575 16.91199825 -79.96875 19.03125 C-82.11162644 20.05323723 -84.23664201 20.78688721 -86.5 21.5 C-90.22648804 22.68250478 -93.59937482 24.17014668 -97.05859375 25.984375 C-98.88628253 26.94050998 -100.75501316 27.81698889 -102.625 28.6875 C-107.39237596 31.03788296 -111.76849011 34.02928885 -116.16455078 37.00268555 C-120.67961164 40 -120.67961164 40 -124 40 C-124 40.66 -124 41.32 -124 42 C-124.928125 42.474375 -125.85625 42.94875 -126.8125 43.4375 C-131.35527404 46.0255046 -135.22602993 49.34950862 -139.22265625 52.69921875 C-141.70336666 54.75426577 -144.23253642 56.69764104 -146.8125 58.625 C-150.79199612 61.68779077 -153.85434845 65.11362927 -157 69 C-159.25 71.4375 -159.25 71.4375 -161 73 C-161.66 73 -162.32 73 -163 73 C-163.23203125 73.55300781 -163.4640625 74.10601562 -163.703125 74.67578125 C-165.34443272 77.61728152 -167.42763675 79.74901859 -169.75 82.1875 C-173.63720219 86.36680409 -176.90115259 90.53359921 -179.84375 95.41796875 C-180.2253125 95.94003906 -180.606875 96.46210937 -181 97 C-181.66 97 -182.32 97 -183 97 C-183.26554687 97.72574219 -183.53109375 98.45148438 -183.8046875 99.19921875 C-185.00362227 102.00848747 -186.41478575 104.28695105 -188.125 106.8125 C-191.15835198 111.48944646 -193.77193762 116.26557103 -196.25 121.25 C-196.57887207 121.91104736 -196.90774414 122.57209473 -197.24658203 123.25317383 C-200.06567618 129.00001022 -202.54816849 134.86741971 -204.9375 140.8046875 C-205.27523437 141.63484375 -205.61296875 142.465 -205.9609375 143.3203125 C-206.66183329 145.04356756 -207.35436744 146.77024407 -208.0390625 148.5 C-208.37679687 149.32242188 -208.71453125 150.14484375 -209.0625 150.9921875 C-209.36285156 151.73839355 -209.66320312 152.48459961 -209.97265625 153.25341797 C-211 155 -211 155 -214 156 C-213.41317405 151.26973146 -212.02447432 147.24725446 -210.078125 142.93359375 C-209.78196289 142.26617157 -209.48580078 141.59874939 -209.18066406 140.91110229 C-208.21437915 138.74826922 -207.23434727 136.59216854 -206.25 134.4375 C-205.7469635 133.33177139 -205.7469635 133.33177139 -205.23376465 132.20370483 C-194.1992005 108.06797136 -180.0247207 87.77960171 -161.65625 68.71923828 C-160.14738678 67.15299199 -158.65127051 65.57552771 -157.15625 63.99609375 C-150.30223275 56.91024944 -142.88648104 50.87514932 -135 45 C-134.4234668 44.56800293 -133.84693359 44.13600586 -133.25292969 43.69091797 C-95.30560527 15.41791144 -47.50771273 -0.82702014 0 0 Z " fill="#F5DF7F" transform="translate(256,31)"/>
<path d="M0 0 C0.33 0 0.66 0 1 0 C0.99555878 0.65875122 0.99111755 1.31750244 0.98654175 1.99621582 C0.94217138 8.87473372 0.91207671 15.7532107 0.89013672 22.63183594 C0.88010155 25.19630587 0.86647045 27.76076443 0.84912109 30.32519531 C0.82476379 34.01890884 0.81349176 37.71247059 0.8046875 41.40625 C0.79436493 42.5461438 0.78404236 43.6860376 0.77340698 44.86047363 C0.77255387 50.96263537 1.27390573 56.14851085 3 62 C3.16015625 64.71484375 3.16015625 64.71484375 3.0625 66.9375 C3.00911182 68.29077421 2.97925782 69.64583193 3 71 C3.33 71.33 3.66 71.66 4 72 C4.07205511 73.68608966 4.08386068 75.37500659 4.0625 77.0625 C4.05347656 77.98160156 4.04445313 78.90070313 4.03515625 79.84765625 C4.02355469 80.55792969 4.01195312 81.26820313 4 82 C4.66 82 5.32 82 6 82 C6.23074219 83.12535156 6.46148437 84.25070312 6.69921875 85.41015625 C9.56857452 99.05566993 13.46525906 111.90079067 19.08203125 124.70703125 C20 127 20 127 20 129 C20.66 129 21.32 129 22 129 C22.66 131.64 23.32 134.28 24 137 C24.66 137 25.32 137 26 137 C27.25664978 139.90600261 28 141.79604584 28 145 C28.66 145 29.32 145 30 145 C30.28875 145.804375 30.5775 146.60875 30.875 147.4375 C31.73262568 150.1326468 31.73262568 150.1326468 34 151 C34.92288942 152.61946519 35.78860391 154.27171672 36.625 155.9375 C39.25958253 160.89822613 42.26650314 165.12536102 45.875 169.41796875 C47.58597674 171.4969313 49.15885608 173.5943975 50.734375 175.7734375 C54.18231825 180.40051229 58.14069529 184.39969418 62.25 188.4375 C62.96929687 189.15615234 63.68859375 189.87480469 64.4296875 190.61523438 C67.89290794 194.24028439 67.89290794 194.24028439 72 197 C72 197.66 72 198.32 72 199 C72.58265625 199.268125 73.1653125 199.53625 73.765625 199.8125 C76.02786601 201.01480991 77.80576318 202.33825913 79.75 204 C80.36359375 204.515625 80.9771875 205.03125 81.609375 205.5625 C83 207 83 207 83 209 C77.89084679 207.493331 74.80246353 204.35561107 71.0625 200.75 C70.08277222 199.81716187 70.08277222 199.81716187 69.08325195 198.86547852 C67.04726989 196.91868859 65.02331956 194.95993728 63 193 C62.37254883 192.39978027 61.74509766 191.79956055 61.09863281 191.18115234 C52.90294354 183.33111681 45.56136897 175.27511489 39 166 C38.53916016 165.36175293 38.07832031 164.72350586 37.60351562 164.06591797 C18.14612111 136.95155813 6.05048125 105.64176781 -0.3125 73 C-0.47194092 72.18869629 -0.63138184 71.37739258 -0.7956543 70.54150391 C-2.99446776 58.53717096 -3.20210686 46.42328801 -3.1875 34.25 C-3.18789276 33.55188202 -3.18828552 32.85376404 -3.18869019 32.13449097 C-3.16919276 3.16919276 -3.16919276 3.16919276 0 0 Z " fill="#F8E17F" transform="translate(33,226)"/>
<path d="M0 0 C3.84584283 0.02996761 6.34671583 0.16922727 9.375 2.625 C13.76631998 7.57930972 14.27351476 11.22377289 14.1171875 17.74609375 C13.68417586 21.48220701 12.74926929 23.02558457 9.8125 25.375 C4.81468195 28.03110721 0.41333466 28.72505217 -5.1875 28.375 C-6.12434239 19.39135069 -6.59307732 10.40505968 -6.1875 1.375 C-4.47710219 -0.33539781 -2.33656044 0.08198458 0 0 Z " fill="#E7AD23" transform="translate(270.1875,268.625)"/>
<path d="M0 0 C0.66 0 1.32 0 2 0 C0.54132068 4.9595097 -1.57271363 9.16967891 -4.125 13.625 C-4.52533447 14.32794189 -4.92566895 15.03088379 -5.33813477 15.75512695 C-25.69409136 51.11571125 -60.31160518 91.1813686 -100 105 C-99.75 103.1328125 -99.75 103.1328125 -99 101 C-97.1875 99.8046875 -97.1875 99.8046875 -95 98.875 C-91.84237802 97.66200212 -91.84237802 97.66200212 -90 95 C-88.68 95 -87.36 95 -86 95 C-85.67 94.01 -85.34 93.02 -85 92 C-83.68042828 91.61578735 -82.34352471 91.28953455 -81 91 C-79.06706519 89.88813609 -79.06706519 89.88813609 -77.1796875 88.49609375 C-76.47972656 88.00302734 -75.77976562 87.50996094 -75.05859375 87.00195312 C-73.97771484 86.22754883 -73.97771484 86.22754883 -72.875 85.4375 C-71.43788269 84.41116932 -69.99791113 83.38881984 -68.5546875 82.37109375 C-67.92030762 81.91661865 -67.28592773 81.46214355 -66.63232422 80.99389648 C-65 80 -65 80 -63 80 C-62.7525 79.401875 -62.505 78.80375 -62.25 78.1875 C-60.81927475 75.68373081 -59.4308418 74.51927612 -57 73 C-56.34 73 -55.68 73 -55 73 C-55 72.34 -55 71.68 -55 71 C-53.42578125 69.44921875 -53.42578125 69.44921875 -51.3125 67.6875 C-48.05416362 64.91505589 -44.98893961 62.06557909 -42 59 C-41.46761719 58.48953125 -40.93523437 57.9790625 -40.38671875 57.453125 C-35.11026552 52.35216357 -30.60998218 46.75346447 -26.421875 40.73046875 C-25.95265625 40.15941406 -25.4834375 39.58835937 -25 39 C-24.34 39 -23.68 39 -23 39 C-22.74863281 38.28328125 -22.49726563 37.5665625 -22.23828125 36.828125 C-20.88895475 33.74638245 -19.22889879 31.41982174 -17.1875 28.75 C-14.25549329 24.79679167 -11.6688894 20.88870753 -9.36328125 16.546875 C-7.53862149 13.13805505 -5.61201583 9.79068285 -3.6875 6.4375 C-2.98304207 5.20704891 -2.2786125 3.97658158 -1.57421875 2.74609375 C-1.05472656 1.83988281 -0.53523438 0.93367188 0 0 Z " fill="#DCB84B" transform="translate(458,354)"/>
<path d="M0 0 C0 7.59 0 15.18 0 23 C-7.2531316 21.1867171 -13.03097331 18.52968906 -17 12 C-17.5 8.4375 -17.5 8.4375 -16 5 C-10.779282 1.55985801 -6.25322574 0 0 0 Z " fill="#FDDA57" transform="translate(254,209)"/>
<path d="M0 0 C1.56814453 0.03287109 1.56814453 0.03287109 3.16796875 0.06640625 C5.8125 0.4375 5.8125 0.4375 7.8125 2.4375 C7.84905909 5.54197622 7.75835282 8.53286572 7.5625 11.625 C7.5116626 12.5430542 7.4608252 13.4611084 7.40844727 14.40698242 C6.7803952 25.10188909 5.8185241 35.77247299 4.8125 46.4375 C1.80218256 47.37173645 0.94599732 47.48199911 -2.1875 46.4375 C-2.1875 47.0975 -2.1875 47.7575 -2.1875 48.4375 C-1.5275 48.4375 -0.8675 48.4375 -0.1875 48.4375 C0.1425 57.0175 0.4725 65.5975 0.8125 74.4375 C-1.1675 74.1075 -3.1475 73.7775 -5.1875 73.4375 C-4.1975 72.9425 -4.1975 72.9425 -3.1875 72.4375 C-3.1875 64.8475 -3.1875 57.2575 -3.1875 49.4375 C-4.1775 49.1075 -5.1675 48.7775 -6.1875 48.4375 C-5.1975 48.4375 -4.2075 48.4375 -3.1875 48.4375 C-3.21070313 47.76203125 -3.23390625 47.0865625 -3.2578125 46.390625 C-3.27585938 45.49859375 -3.29390625 44.6065625 -3.3125 43.6875 C-3.33570313 42.80578125 -3.35890625 41.9240625 -3.3828125 41.015625 C-3.17889502 38.3239142 -2.55301721 36.73845026 -1.1875 34.4375 C-1.1875 35.7575 -1.1875 37.0775 -1.1875 38.4375 C1.85066941 36.8242186 1.85066941 36.8242186 2.49609375 34.703125 C2.89571159 31.84166394 2.90639763 29.076082 2.875 26.1875 C2.86146484 24.57101563 2.86146484 24.57101563 2.84765625 22.921875 C2.83605469 22.10203125 2.82445312 21.2821875 2.8125 20.4375 C3.4725 20.4375 4.1325 20.4375 4.8125 20.4375 C4.83934312 17.62493719 4.85926188 14.81262759 4.875 12 C4.88337891 11.19755859 4.89175781 10.39511719 4.90039062 9.56835938 C4.9090143 7.52454779 4.8647815 5.48066098 4.8125 3.4375 C3.66834664 2.08679855 3.66834664 2.08679855 0.625 2.0625 C-2.98583468 2.41766407 -5.2982025 2.85675226 -8.03125 5.328125 C-10.74490158 10.27870558 -10.17356747 16.89932057 -10.1875 22.4375 C-10.5175 22.4375 -10.8475 22.4375 -11.1875 22.4375 C-11.32298815 19.70666098 -11.42179855 16.98258193 -11.5 14.25 C-11.54189453 13.48107422 -11.58378906 12.71214844 -11.62695312 11.91992188 C-11.71665648 7.73974558 -11.53493167 5.93001302 -9.0546875 2.4140625 C-5.70476902 0.10471815 -4.02536639 -0.15501411 0 0 Z " fill="#FEF5C7" transform="translate(257.1875,159.5625)"/>
<path d="M0 0 C3.75025949 -0.22709184 5.74123117 0.14236974 8.875 2.1875 C17.16955947 7.08630023 26.78299575 9.40549623 36 12 C36 12.66 36 13.32 36 14 C37.7015625 13.9690625 37.7015625 13.9690625 39.4375 13.9375 C43 14 43 14 44 15 C45.03125 15.144375 46.0625 15.28875 47.125 15.4375 C50.91257888 15.98730984 54.33163091 16.92478837 58 18 C63.90268534 19.49785306 69.68646137 20.39876872 75.75390625 20.8515625 C76.54022934 20.91532074 77.32655243 20.97907898 78.13670349 21.04476929 C80.61154021 21.24409223 83.08695461 21.43470347 85.5625 21.625 C87.25590562 21.75983716 88.94926559 21.89524884 90.64257812 22.03125 C94.76122188 22.36079914 98.88040711 22.68254546 103 23 C103 23.66 103 24.32 103 25 C66.6972288 25.43925377 32.73657678 17.54160716 0 2 C0 1.34 0 0.68 0 0 Z " fill="#DEB649" transform="translate(154,459)"/>
<path d="M0 0 C1.32 0 2.64 0 4 0 C4.31366039 10.83870913 3.36326269 21.2643063 2 32 C1.01 32 0.02 32 -1 32 C-0.88153302 36.48422272 -0.75727003 40.96823642 -0.62768555 45.45214844 C-0.58443293 46.97684386 -0.54275115 48.50158469 -0.50268555 50.02636719 C-0.44474797 52.22084222 -0.38112205 54.41509068 -0.31640625 56.609375 C-0.29969376 57.2886908 -0.28298126 57.96800659 -0.26576233 58.66790771 C-0.16395256 61.93661562 0.18777652 64.84628854 1 68 C1.14757774 70.14856341 1.24737635 72.30060583 1.31640625 74.453125 C1.35830078 75.71253906 1.40019531 76.97195313 1.44335938 78.26953125 C1.48267578 79.58308594 1.52199219 80.89664063 1.5625 82.25 C1.62727539 84.19712891 1.62727539 84.19712891 1.69335938 86.18359375 C1.89484774 92.45851712 2.05577022 98.721867 2 105 C2.99 105 3.98 105 5 105 C5.33 108.3 5.66 111.6 6 115 C5.34 114.01 4.68 113.02 4 112 C1.94074861 111.27617533 1.94074861 111.27617533 0 111 C-2.52920479 84.41644328 -2.12629471 57.66955717 -2 31 C-1.34 30.67 -0.68 30.34 0 30 C0.04898437 28.91203125 0.09796875 27.8240625 0.1484375 26.703125 C0.57773352 18.00913695 1.30157533 9.5580816 3 1 C2.01 0.67 1.02 0.34 0 0 Z " fill="#FDF5CF" transform="translate(258,234)"/>
<path d="M0 0 C-1.32 0.33 -2.64 0.66 -4 1 C-4.33 9.91 -4.66 18.82 -5 28 C-6.65 27.67 -8.3 27.34 -10 27 C-10 18.42 -10 9.84 -10 1 C-6.41220825 0.10305206 -3.65381163 -0.08304117 0 0 Z " fill="#FDE366" transform="translate(268,207)"/>
<path d="M0 0 C1.81306131 0.11657585 3.625439 0.24378959 5.4375 0.375 C6.95150391 0.47941406 6.95150391 0.47941406 8.49609375 0.5859375 C11.17662594 0.9027005 13.56667011 1.34239786 16.171875 1.97265625 C20.69465243 2.99417393 25.136028 3.50694519 29.75390625 3.8515625 C30.93339088 3.94719986 30.93339088 3.94719986 32.13670349 4.04476929 C34.61154021 4.24409223 37.08695461 4.43470347 39.5625 4.625 C41.25590562 4.75983716 42.94926559 4.89524884 44.64257812 5.03125 C48.76122188 5.36079914 52.88040711 5.68254546 57 6 C57 6.66 57 7.32 57 8 C49.33831235 8.10157897 41.76343665 7.84906934 34.125 7.25 C32.51927124 7.12455811 32.51927124 7.12455811 30.88110352 6.99658203 C20.42580031 6.09346614 10.24666386 4.21957177 0 2 C0 1.34 0 0.68 0 0 Z " fill="#D4AF4B" transform="translate(200,476)"/>
<path d="M0 0 C2.71112615 2.22451376 3.90269396 3.34296107 4.42578125 6.875 C4.38839844 7.90625 4.35101563 8.9375 4.3125 10 C4.28800781 11.03125 4.26351563 12.0625 4.23828125 13.125 C4 16 4 16 3 20 C6.96 20 10.92 20 15 20 C15 20.33 15 20.66 15 21 C11.04 21.33 7.08 21.66 3 22 C3 22.66 3 23.32 3 24 C2.34 24 1.68 24 1 24 C0.67 24.99 0.34 25.98 0 27 C-0.33 27 -0.66 27 -1 27 C-1.02905924 23.2500163 -1.04681874 19.50006163 -1.0625 15.75 C-1.07087891 14.68652344 -1.07925781 13.62304688 -1.08789062 12.52734375 C-1.09111328 11.50253906 -1.09433594 10.47773438 -1.09765625 9.421875 C-1.10289307 8.47924805 -1.10812988 7.53662109 -1.11352539 6.56542969 C-1.00968082 4.21876563 -0.66706529 2.24355522 0 0 Z " fill="#FAE17F" transform="translate(265,162)"/>
<path d="M0 0 C4.05473173 2.67901918 8.03537124 5.43835001 12 8.25 C17.33080263 12.00600644 22.82727352 15.30351785 28.59375 18.34863281 C32.89468714 20.68406141 32.89468714 20.68406141 34 24 C24.38038156 20.41727432 15.58979868 14.60290055 7.25 8.6875 C6.65388916 8.26726562 6.05777832 7.84703125 5.44360352 7.4140625 C2.69462444 5.42382244 0.90454586 3.85681879 -1 1 C-0.67 0.67 -0.34 0.34 0 0 Z " fill="#F6DE7C" transform="translate(118,435)"/>
<path d="M0 0 C1.56814453 0.03287109 1.56814453 0.03287109 3.16796875 0.06640625 C5.8125 0.4375 5.8125 0.4375 7.8125 2.4375 C7.84841137 4.97224443 7.76544647 7.3576554 7.5625 9.875 C7.5116626 10.58914062 7.4608252 11.30328125 7.40844727 12.0390625 C6.94856517 17.91921924 6.07042105 23.67304627 4.8125 29.4375 C4.4825 29.4375 4.1525 29.4375 3.8125 29.4375 C3.4825 26.4675 3.1525 23.4975 2.8125 20.4375 C3.4725 20.4375 4.1325 20.4375 4.8125 20.4375 C4.83934312 17.62493719 4.85926188 14.81262759 4.875 12 C4.88337891 11.19755859 4.89175781 10.39511719 4.90039062 9.56835938 C4.9090143 7.52454779 4.8647815 5.48066098 4.8125 3.4375 C3.66834664 2.08679855 3.66834664 2.08679855 0.625 2.0625 C-2.98583468 2.41766407 -5.2982025 2.85675226 -8.03125 5.328125 C-10.74490158 10.27870558 -10.17356747 16.89932057 -10.1875 22.4375 C-10.5175 22.4375 -10.8475 22.4375 -11.1875 22.4375 C-11.32298815 19.70666098 -11.42179855 16.98258193 -11.5 14.25 C-11.54189453 13.48107422 -11.58378906 12.71214844 -11.62695312 11.91992188 C-11.71665648 7.73974558 -11.53493167 5.93001302 -9.0546875 2.4140625 C-5.70476902 0.10471815 -4.02536639 -0.15501411 0 0 Z " fill="#FEFBD2" transform="translate(257.1875,159.5625)"/>
<path d="M0 0 C0.33 0 0.66 0 1 0 C1.02505615 0.71953857 1.0501123 1.43907715 1.07592773 2.18041992 C1.67236049 20.61150964 1.67236049 20.61150964 3 39 C3.99 39.33 4.98 39.66 6 40 C6.33 39.34 6.66 38.68 7 38 C7.3125 41.25 7.3125 41.25 7 45 C4.5 47.4375 4.5 47.4375 2 49 C2.020625 48.030625 2.04125 47.06125 2.0625 46.0625 C2.35618499 43.12534105 2.35618499 43.12534105 1 42 C-0.32948812 32.82270981 -0.12152295 23.49767105 -0.0625 14.25 C-0.05746857 12.85937663 -0.0529086 11.46875148 -0.04882812 10.078125 C-0.03716347 6.71870295 -0.02079614 3.35937581 0 0 Z " fill="#FEFBE1" transform="translate(256,306)"/>
<path d="M0 0 C0 7.59 0 15.18 0 23 C-4 22 -4 22 -7 20 C-5.35 20.33 -3.7 20.66 -2 21 C-1.97309156 18.37493198 -1.95320596 15.75013827 -1.9375 13.125 C-1.92912109 12.37863281 -1.92074219 11.63226563 -1.91210938 10.86328125 C-1.79311916 6.80154422 -1.79311916 6.80154422 -3 3 C-4.46067199 3.45082469 -5.91848032 3.91093537 -7.375 4.375 C-8.18710938 4.63023437 -8.99921875 4.88546875 -9.8359375 5.1484375 C-12.16459185 5.89854283 -12.16459185 5.89854283 -14 8 C-14.16677282 11.58343976 -14.16677282 11.58343976 -14 15 C-15.5625 13.9375 -15.5625 13.9375 -17 12 C-17.375 8.625 -17.375 8.625 -16 5 C-10.80659457 1.54060535 -6.23357164 0 0 0 Z " fill="#F6DA75" transform="translate(254,209)"/>
<path d="M0 0 C0.33 0 0.66 0 1 0 C1.14424066 3.98349751 1.28658 7.96705822 1.42724609 11.95068359 C1.49869536 13.96325114 1.57159978 15.97576687 1.64453125 17.98828125 C1.86758597 24.32940829 2.06474632 30.65486049 2 37 C2.99 37 3.98 37 5 37 C5.33 40.3 5.66 43.6 6 47 C5.34 46.01 4.68 45.02 4 44 C2.68 43.67 1.36 43.34 0 43 C0 28.81 0 14.62 0 0 Z " fill="#FDF0BA" transform="translate(258,302)"/>
<path d="M0 0 C1.32 0 2.64 0 4 0 C4 7.92 4 15.84 4 24 C3.34 24.33 2.68 24.66 2 25 C0.74161443 22.48322887 0.79181027 20.58706712 0.68359375 17.7734375 C0.64169922 16.7421875 0.59980469 15.7109375 0.55664062 14.6484375 C0.51732422 13.56820313 0.47800781 12.48796875 0.4375 11.375 C0.39431641 10.28703125 0.35113281 9.1990625 0.30664062 8.078125 C0.2003547 5.3855483 0.09831943 2.69287747 0 0 Z " fill="#FDE785" transform="translate(257,267)"/>
<path d="M0 0 C1.67542976 0.28604898 3.34385343 0.61781233 5 1 C2.70610473 2.15523882 0.40369328 3.2873478 -1.91015625 4.40234375 C-2.95042969 4.90894531 -3.99070313 5.41554687 -5.0625 5.9375 C-6.62677734 6.69353516 -6.62677734 6.69353516 -8.22265625 7.46484375 C-10.63714334 8.79943366 -12.21725986 9.93350191 -14 12 C-14.99 11.67 -15.98 11.34 -17 11 C-16.76171875 9.09765625 -16.76171875 9.09765625 -16 7 C-14.14453125 6.05859375 -14.14453125 6.05859375 -11.8125 5.4375 C-5.4077152 3.66740462 -5.4077152 3.66740462 0 0 Z " fill="#F0D975" transform="translate(235,180)"/>
<path d="M0 0 C6.46389131 -0.36435295 13.2885712 -0.48670368 19 3 C19.74609375 5.109375 19.74609375 5.109375 20 7 C19.01 7.495 19.01 7.495 18 8 C18 7.34 18 6.68 18 6 C16.86820312 5.73445312 15.73640625 5.46890625 14.5703125 5.1953125 C13.08845168 4.8389156 11.6066857 4.48212424 10.125 4.125 C9.37863281 3.95097656 8.63226563 3.77695313 7.86328125 3.59765625 C2.2265625 2.2265625 2.2265625 2.2265625 0 0 Z " fill="#FCF2B0" transform="translate(280,185)"/>
<path d="M0 0 C5.18042487 -0.30473087 7.72258062 0.14838708 12 3 C13.51197571 3.6865187 15.03378685 4.35160617 16.5625 5 C19.70485778 6.36168837 22.39228711 7.73242357 25 10 C23.35 10 21.7 10 20 10 C20 9.34 20 8.68 20 8 C19.46375 7.87625 18.9275 7.7525 18.375 7.625 C15.52098405 6.87394317 12.76196159 6.04340771 10 5 C9.67 4.34 9.34 3.68 9 3 C6.64400765 2.53248212 6.64400765 2.53248212 3.9375 2.375 C3.01839844 2.30023438 2.09929687 2.22546875 1.15234375 2.1484375 C0.44207031 2.09945313 -0.26820313 2.05046875 -1 2 C-0.67 1.34 -0.34 0.68 0 0 Z " fill="#FEFBDC" transform="translate(213,287)"/>
<path d="M0 0 C0.33 0 0.66 0 1 0 C1.11159565 5.46818708 0.77506106 10.57457259 0 16 C0.33 16.66 0.66 17.32 1 18 C1.04022391 20.3329866 1.04320247 22.66706666 1 25 C-2.65916215 19.51125678 -2.42906157 13.42594537 -2 7 C-1.5017307 4.55631403 -0.82176315 2.36256906 0 0 Z " fill="#FCF7D7" transform="translate(210,207)"/>
<path d="M0 0 C1.65 0 3.3 0 5 0 C5.33 1.32 5.66 2.64 6 4 C7.32 3.67 8.64 3.34 10 3 C10.66 4.32 11.32 5.64 12 7 C7.61110675 6.33501617 4.0188515 4.81242323 0 3 C0 2.01 0 1.02 0 0 Z " fill="#EEBE39" transform="translate(156,456)"/>
<path d="M0 0 C-0.969375 0.515625 -1.93875 1.03125 -2.9375 1.5625 C-5.73253166 3.79852533 -6.0093922 5.05552619 -6.62109375 8.671875 C-6.91360071 12.44652184 -6.99047793 16.2149754 -7 20 C-7.33 20 -7.66 20 -8 20 C-8.05392397 17.22890693 -8.09363455 14.45886182 -8.125 11.6875 C-8.14175781 10.90181641 -8.15851563 10.11613281 -8.17578125 9.30664062 C-8.18544922 8.1706543 -8.18544922 8.1706543 -8.1953125 7.01171875 C-8.20578613 6.31522217 -8.21625977 5.61872559 -8.22705078 4.90112305 C-8 3 -8 3 -6 0 C-3.39677846 -0.97620808 -2.52782417 -1.26391209 0 0 Z " fill="#FEFCE4" transform="translate(254,162)"/>
<path d="M0 0 C0.33 0.66 0.66 1.32 1 2 C0.34 2 -0.32 2 -1 2 C-0.67 3.98 -0.34 5.96 0 8 C-1.98 8.99 -3.96 9.98 -6 11 C-6 9.02 -6 7.04 -6 5 C-5.01 5 -4.02 5 -3 5 C-2.87625 4.360625 -2.7525 3.72125 -2.625 3.0625 C-2.41875 2.381875 -2.2125 1.70125 -2 1 C-1.34 0.67 -0.68 0.34 0 0 Z " fill="#E0B028" transform="translate(263,352)"/>
<path d="M0 0 C0.66 0.33 1.32 0.66 2 1 C1 3 1 3 -1 5 C-5.58314214 5.43648973 -9.05491442 5.63005705 -13 3 C-10.69 3 -8.38 3 -6 3 C-5.67 2.34 -5.34 1.68 -5 1 C-3.35 1.33 -1.7 1.66 0 2 C0 1.34 0 0.68 0 0 Z " fill="#FCE791" transform="translate(293,207)"/>
<path d="M0 0 C0.94875 0.04125 1.8975 0.0825 2.875 0.125 C0.36472295 2.7249298 -2.1113684 5.11591227 -5.125 7.125 C-5.785 7.125 -6.445 7.125 -7.125 7.125 C-4.56730769 0.18269231 -4.56730769 0.18269231 0 0 Z " fill="#E1BB3A" transform="translate(400.125,425.875)"/>
<path d="M0 0 C5.66153846 1.47692308 5.66153846 1.47692308 7.375 4.125 C7.58125 4.74375 7.7875 5.3625 8 6 C5 6 5 6 2 5 C1.67 4.34 1.34 3.68 1 3 C0.34 2.67 -0.32 2.34 -1 2 C-0.67 1.34 -0.34 0.68 0 0 Z " fill="#FDE79B" transform="translate(280,240)"/>
<path d="M0 0 C0.66 0 1.32 0 2 0 C1.49477778 4.37859255 -1.17827222 6.81651224 -4 10 C-4.66 9.67 -5.32 9.34 -6 9 C-5.18914873 7.68648079 -4.37626942 6.37421332 -3.5625 5.0625 C-3.11003906 4.33160156 -2.65757812 3.60070312 -2.19140625 2.84765625 C-1 1 -1 1 0 0 Z " fill="#E3BF37" transform="translate(429,394)"/>
<path d="M0 0 C0.66 0.33 1.32 0.66 2 1 C0.71520959 2.50589388 -0.57804082 4.00457375 -1.875 5.5 C-2.95394531 6.75296875 -2.95394531 6.75296875 -4.0546875 8.03125 C-4.69664062 8.6809375 -5.33859375 9.330625 -6 10 C-6.66 10 -7.32 10 -8 10 C-6.34908222 5.70761377 -3.26245434 3.1206085 0 0 Z " fill="#FEFCE3" transform="translate(224,188)"/>
<path d="M0 0 C1.485 0.99 1.485 0.99 3 2 C3.29296875 4.6015625 3.29296875 4.6015625 3.1875 7.625 C3.16042969 8.62789062 3.13335937 9.63078125 3.10546875 10.6640625 C3.07066406 11.43492187 3.03585937 12.20578125 3 13 C0.41073669 10.41073669 0.62601957 8.97294721 0.375 5.375 C0.30023438 4.37210938 0.22546875 3.36921875 0.1484375 2.3359375 C0.09945313 1.56507813 0.05046875 0.79421875 0 0 Z " fill="#FAE890" transform="translate(265,162)"/>
<path d="M0 0 C2.00720923 0.28674418 4.0085944 0.61866701 6 1 C2.36804504 3.42130331 0.61650652 3.21022785 -3.6875 3.125 C-4.86699219 3.10695313 -6.04648438 3.08890625 -7.26171875 3.0703125 C-8.16535156 3.04710937 -9.06898438 3.02390625 -10 3 C-10 2.67 -10 2.34 -10 2 C-9.04287109 1.90912109 -9.04287109 1.90912109 -8.06640625 1.81640625 C-6.82697266 1.69072266 -6.82697266 1.69072266 -5.5625 1.5625 C-4.73878906 1.48128906 -3.91507813 1.40007812 -3.06640625 1.31640625 C-1.01337975 1.21069185 -1.01337975 1.21069185 0 0 Z " fill="#DEB337" transform="translate(256,479)"/>
<path d="M0 0 C1.32 0 2.64 0 4 0 C2.86280581 3.41158256 1.95657056 4.11854601 -1 6 C-1.66 6 -2.32 6 -3 6 C-3 5.34 -3 4.68 -3 4 C-2.34 3.67 -1.68 3.34 -1 3 C-0.67 2.01 -0.34 1.02 0 0 Z " fill="#FDDE82" transform="translate(286,314)"/>
<path d="M0 0 C1.32 0.33 2.64 0.66 4 1 C4 1.66 4 2.32 4 3 C1.69 3.33 -0.62 3.66 -3 4 C-2.01 2.68 -1.02 1.36 0 0 Z " fill="#E0B131" transform="translate(321,467)"/>
</svg>
